REM DIRINDEX 1\6,1\2\7,1\2\8,1\2\9,1\3\10,1\3\11,1\4\12,1\4\13,1\4\14,1\5\15,1\5\16,1\5\17
REM DIRNAME folder01,folder02,folder03,folder04,folder05,folder06,folder07,folder08,folder09,folder10,folder11,folder12,folder13,folder14,folder15,folder16,folder17
TITLE ""
FILE "P2Q_j_1478-1491.mp3" MP3
  TRACK 01 AUDIO
    TITLE "12:cjc040_1179"
    INDEX 01 00:00:00
  TRACK 02 AUDIO
    TITLE "0:"
    INDEX 01 00:02:10
  TRACK 03 AUDIO
    TITLE "13:cjc040_1180"
    INDEX 01 00:02:71
  TRACK 04 AUDIO
    TITLE "0:"
    INDEX 01 00:04:58
  TRACK 05 AUDIO
    TITLE "14:cjc040_1181"
    INDEX 01 00:05:30
  TRACK 06 AUDIO
    TITLE "0:"
    INDEX 01 00:09:40
  TRACK 07 AUDIO
    TITLE "12:cjc040_1182"
    INDEX 01 00:10:19
  TRACK 08 AUDIO
    TITLE "0:"
    INDEX 01 00:11:50
  TRACK 09 AUDIO
    TITLE "13:cjc040_1183"
    INDEX 01 00:12:36
  TRACK 10 AUDIO
    TITLE "0:"
    INDEX 01 00:13:67
  TRACK 11 AUDIO
    TITLE "14:cjc040_1184"
    INDEX 01 00:14:47
  TRACK 12 AUDIO
    TITLE "0:"
    INDEX 01 00:20:10
  TRACK 13 AUDIO
    TITLE "12:cjc040_1185"
    INDEX 01 00:20:69
  TRACK 14 AUDIO
    TITLE "0:"
    INDEX 01 00:22:60
  TRACK 15 AUDIO
    TITLE "13:cjc040_1186"
    INDEX 01 00:23:44
  TRACK 16 AUDIO
    TITLE "0:"
    INDEX 01 00:25:37
  TRACK 17 AUDIO
    TITLE "14:cjc040_1187"
    INDEX 01 00:26:15
  TRACK 18 AUDIO
    TITLE "0:"
    INDEX 01 00:30:28
  TRACK 19 AUDIO
    TITLE "12:cjc040_1188"
    INDEX 01 00:31:14
  TRACK 20 AUDIO
    TITLE "0:"
    INDEX 01 00:32:33
  TRACK 21 AUDIO
    TITLE "13:cjc040_1189"
    INDEX 01 00:33:11
  TRACK 22 AUDIO
    TITLE "0:"
    INDEX 01 00:35:00
  TRACK 23 AUDIO
    TITLE "14:cjc040_1190"
    INDEX 01 00:35:53
  TRACK 24 AUDIO
    TITLE "0:"
    INDEX 01 00:39:13
  TRACK 25 AUDIO
    TITLE "12:cjc040_1191"
    INDEX 01 00:39:66
  TRACK 26 AUDIO
    TITLE "0:"
    INDEX 01 00:41:55
  TRACK 27 AUDIO
    TITLE "13:cjc040_1192"
    INDEX 01 00:42:31
  TRACK 28 AUDIO
    TITLE "0:"
    INDEX 01 00:44:34
  TRACK 29 AUDIO
    TITLE "14:cjc040_1193"
    INDEX 01 00:45:04
  TRACK 30 AUDIO
    TITLE "0:"
    INDEX 01 00:49:45
  TRACK 31 AUDIO
    TITLE "12:cjc040_1194"
    INDEX 01 00:50:17
  TRACK 32 AUDIO
    TITLE "0:"
    INDEX 01 00:52:28
  TRACK 33 AUDIO
    TITLE "13:cjc040_1195"
    INDEX 01 00:53:04
  TRACK 34 AUDIO
    TITLE "0:"
    INDEX 01 00:54:70
  TRACK 35 AUDIO
    TITLE "14:cjc040_1196"
    INDEX 01 00:55:44
  TRACK 36 AUDIO
    TITLE "0:"
    INDEX 01 00:58:42
  TRACK 37 AUDIO
    TITLE "12:cjc040_1197"
    INDEX 01 00:59:26
  TRACK 38 AUDIO
    TITLE "0:"
    INDEX 01 01:00:60
  TRACK 39 AUDIO
    TITLE "13:cjc040_1198"
    INDEX 01 01:01:40
  TRACK 40 AUDIO
    TITLE "0:"
    INDEX 01 01:03:10
  TRACK 41 AUDIO
    TITLE "14:cjc040_1199"
    INDEX 01 01:03:65
  TRACK 42 AUDIO
    TITLE "0:"
    INDEX 01 01:07:74
  TRACK 43 AUDIO
    TITLE "12:cjc040_1200"
    INDEX 01 01:08:56
  TRACK 44 AUDIO
    TITLE "0:"
    INDEX 01 01:11:13
  TRACK 45 AUDIO
    TITLE "13:cjc040_1201"
    INDEX 01 01:11:72
  TRACK 46 AUDIO
    TITLE "0:"
    INDEX 01 01:13:51
  TRACK 47 AUDIO
    TITLE "14:cjc040_1202"
    INDEX 01 01:14:35
  TRACK 48 AUDIO
    TITLE "0:"
    INDEX 01 01:19:19
  TRACK 49 AUDIO
    TITLE "12:cjc040_1203"
    INDEX 01 01:19:74
  TRACK 50 AUDIO
    TITLE "0:"
    INDEX 01 01:22:25
  TRACK 51 AUDIO
    TITLE "13:cjc040_1204"
    INDEX 01 01:23:03
  TRACK 52 AUDIO
    TITLE "0:"
    INDEX 01 01:25:00
  TRACK 53 AUDIO
    TITLE "14:cjc040_1205"
    INDEX 01 01:25:55
  TRACK 54 AUDIO
    TITLE "0:"
    INDEX 01 01:30:52
  TRACK 55 AUDIO
    TITLE "12:cjc040_1206"
    INDEX 01 01:31:36
  TRACK 56 AUDIO
    TITLE "0:"
    INDEX 01 01:32:64
  TRACK 57 AUDIO
    TITLE "13:cjc040_1207"
    INDEX 01 01:33:48
  TRACK 58 AUDIO
    TITLE "0:"
    INDEX 01 01:36:05
  TRACK 59 AUDIO
    TITLE "14:cjc040_1208"
    INDEX 01 01:36:54
  TRACK 60 AUDIO
    TITLE "0:"
    INDEX 01 01:40:52
  TRACK 61 AUDIO
    TITLE "12:cjc040_1209"
    INDEX 01 01:41:34
  TRACK 62 AUDIO
    TITLE "0:"
    INDEX 01 01:43:33
  TRACK 63 AUDIO
    TITLE "13:cjc040_1210"
    INDEX 01 01:44:17
  TRACK 64 AUDIO
    TITLE "0:"
    INDEX 01 01:45:69
  TRACK 65 AUDIO
    TITLE "14:cjc040_1211"
    INDEX 01 01:46:49
  TRACK 66 AUDIO
    TITLE "0:"
    INDEX 01 01:52:18
  TRACK 67 AUDIO
    TITLE "12:cjc040_1212"
    INDEX 01 01:52:69
  TRACK 68 AUDIO
    TITLE "0:"
    INDEX 01 01:54:25
  TRACK 69 AUDIO
    TITLE "13:cjc040_1213"
    INDEX 01 01:55:07
  TRACK 70 AUDIO
    TITLE "0:"
    INDEX 01 01:56:16
  TRACK 71 AUDIO
    TITLE "14:cjc040_1214"
    INDEX 01 01:56:73
  TRACK 72 AUDIO
    TITLE "0:"
    INDEX 01 02:02:20
  TRACK 73 AUDIO
    TITLE "12:cjc040_1215"
    INDEX 01 02:02:69
  TRACK 74 AUDIO
    TITLE "0:"
    INDEX 01 02:04:68
  TRACK 75 AUDIO
    TITLE "13:cjc040_1216"
    INDEX 01 02:05:46
  TRACK 76 AUDIO
    TITLE "0:"
    INDEX 01 02:07:16
  TRACK 77 AUDIO
    TITLE "14:cjc040_1217"
    INDEX 01 02:07:69
  TRACK 78 AUDIO
    TITLE "0:"
    INDEX 01 02:12:01
  TRACK 79 AUDIO
    TITLE "12:cjc040_1218"
    INDEX 01 02:12:54
  TRACK 80 AUDIO
    TITLE "0:"
    INDEX 01 02:14:45
  TRACK 81 AUDIO
    TITLE "13:cjc040_1219"
    INDEX 01 02:15:23
  TRACK 82 AUDIO
    TITLE "0:"
    INDEX 01 02:16:64
  TRACK 83 AUDIO
    TITLE "14:cjc040_1220"
    INDEX 01 02:17:34
  TRACK 84 AUDIO
    TITLE "0:"
    INDEX 01 02:21:67
